/* XPM */
static char * appIcon_xpm[] = {
"48 48 254 2",
"  	c #6A4841",
". 	c #FFFFFF",
"+ 	c #FEF5F2",
"@ 	c #FCECE6",
"# 	c #F8F6F5",
"$ 	c #ECE6E5",
"% 	c #FEFDFD",
"& 	c #F3E5E2",
"* 	c #FDF0EA",
"= 	c #FBE2D7",
"- 	c #F4F1EF",
"; 	c #E0D6D4",
"> 	c #FEFCFC",
", 	c #EBD3CD",
"' 	c #FCEAE3",
") 	c #F9D7C9",
"! 	c #F0EBE9",
"~ 	c #D4C6C3",
"{ 	c #FDFBFA",
"] 	c #E3C1B8",
"^ 	c #FBE4DB",
"/ 	c #F8CCBA",
"( 	c #ECE5E3",
"_ 	c #C8B6B2",
": 	c #FCFAF9",
"< 	c #DAAEA2",
"[ 	c #FBDFD3",
"} 	c #F6C1AB",
"| 	c #E7E0DD",
"1 	c #BCA6A1",
"2 	c #FCF8F8",
"3 	c #D29B8D",
"4 	c #FADACD",
"5 	c #F5B9A0",
"6 	c #E4DBD8",
"7 	c #B19792",
"8 	c #FBF7F6",
"9 	c #CA8A7A",
"0 	c #F5B89F",
"a 	c #E3DAD7",
"b 	c #AF958F",
"c 	c #C88675",
"d 	c #FAF4F2",
"e 	c #F4E8E5",
"f 	c #FDF5F1",
"g 	c #F9D6C8",
"h 	c #FFFEFD",
"i 	c #E7CBC4",
"j 	c #A13014",
"k 	c #DCB1A7",
"l 	c #FEFCFB",
"m 	c #B96550",
"n 	c #B35841",
"o 	c #E65316",
"p 	c #FCE9E1",
"q 	c #C68171",
"r 	c #A94229",
"s 	c #C07461",
"t 	c #DEB7AD",
"u 	c #A84128",
"v 	c #B0523B",
"w 	c #ED8357",
"x 	c #E85F27",
"y 	c #F4B49A",
"z 	c #FFFDFC",
"A 	c #FFFEFE",
"B 	c #C37A68",
"C 	c #AE4D35",
"D 	c #DCB2A8",
"E 	c #A63C22",
"F 	c #FAF5F3",
"G 	c #AF5038",
"H 	c #D9ACA0",
"I 	c #FCF9F8",
"J 	c #C07462",
"K 	c #E1BDB4",
"L 	c #B8634E",
"M 	c #EAD1CB",
"N 	c #D8A99D",
"O 	c #BB6A56",
"P 	c #AE4E37",
"Q 	c #CF9587",
"R 	c #FDEFE9",
"S 	c #E96934",
"T 	c #F4B095",
"U 	c #EC7D50",
"V 	c #F9D4C5",
"W 	c #EA6F3D",
"X 	c #EA6B37",
"Y 	c #F2A687",
"Z 	c #AB482F",
"` 	c #BC6C59",
" .	c #FDFAF9",
"..	c #AA432A",
"+.	c #E5C6BF",
"@.	c #CE9384",
"#.	c #D09789",
"$.	c #EBD4CE",
"%.	c #AC4931",
"&.	c #EED9D4",
"*.	c #F7EDEA",
"=.	c #A73E25",
"-.	c #F5E8E5",
";.	c #D39E91",
">.	c #EFDBD6",
",.	c #F8EFED",
"'.	c #FBF6F4",
").	c #F6C2AD",
"!.	c #EE865C",
"~.	c #FCEDE7",
"{.	c #E85C23",
"].	c #FDF0EB",
"^.	c #AD887D",
"/.	c #E96530",
"(.	c #F8D1C1",
"_.	c #FDF3EF",
":.	c #A02E12",
"<.	c #DDB5AB",
"[.	c #C47E6D",
"}.	c #CA8C7C",
"|.	c #F0DED9",
"1.	c #B1553E",
"2.	c #FBF6F5",
"3.	c #A94128",
"4.	c #F9F3F1",
"5.	c #F7EDEB",
"6.	c #AA442A",
"7.	c #EDD8D3",
"8.	c #AB472E",
"9.	c #BA6753",
"0.	c #CC8F80",
"a.	c #EE8D64",
"b.	c #EC7E50",
"c.	c #F6C0AA",
"d.	c #A75C42",
"e.	c #EA713F",
"f.	c #FFFFFE",
"g.	c #F6EBE8",
"h.	c #A73E24",
"i.	c #DFB9B0",
"j.	c #FDFAFA",
"k.	c #BE715D",
"l.	c #E0BCB3",
"m.	c #F3E4E0",
"n.	c #A5381E",
"o.	c #F7EEEB",
"p.	c #AD4B33",
"q.	c #DFB8AF",
"r.	c #B7604B",
"s.	c #DEB6AC",
"t.	c #A73D23",
"u.	c #FEF7F5",
"v.	c #E85E26",
"w.	c #EF926C",
"x.	c #F2A382",
"y.	c #EC794B",
"z.	c #EE895F",
"A.	c #A55438",
"B.	c #ED8054",
"C.	c #D7A69A",
"D.	c #BF725F",
"E.	c #F9F1F0",
"F.	c #A4371C",
"G.	c #D39F92",
"H.	c #BC6B57",
"I.	c #FDFCFB",
"J.	c #F4E7E4",
"K.	c #A33419",
"L.	c #F5E9E6",
"M.	c #E0BAB1",
"N.	c #B8624D",
"O.	c #D29C8E",
"P.	c #C37C6A",
"Q.	c #F1E0DC",
"R.	c #BC6D59",
"S.	c #A94228",
"T.	c #FAF5F4",
"U.	c #F8CEBD",
"V.	c #EB7241",
"W.	c #F7C7B3",
"X.	c #F5BCA5",
"Y.	c #E85E25",
"Z.	c #E1CEC8",
"`.	c #AB7868",
" +	c #B35943",
".+	c #B7614B",
"++	c #A5381D",
"@+	c #A4371D",
"#+	c #F1DFDB",
"$+	c #D19B8D",
"%+	c #FDFBFB",
"&+	c #F3E6E2",
"*+	c #F4E8E4",
"=+	c #F09772",
"-+	c #F3AD91",
";+	c #EA6E3B",
">+	c #DBA38E",
",+	c #F4B195",
"'+	c #F09671",
")+	c #EF926B",
"!+	c #E07C57",
"~+	c #A63B20",
"{+	c #E5C7BF",
"]+	c #DEB6AD",
"^+	c #A63C21",
"/+	c #D5A397",
"(+	c #AD4C34",
"_+	c #E2BFB7",
":+	c #D6A599",
"<+	c #BA6854",
"[+	c #A5391E",
"}+	c #E0BBB2",
"|+	c #E7CAC3",
"1+	c #DCB3A9",
"2+	c #D7A79B",
"3+	c #C9897A",
"4+	c #FCE7DF",
"5+	c #FEF5F1",
"6+	c #FCE9E2",
"7+	c #E1CBC3",
"8+	c #FBE3D9",
"9+	c #F7C5B1",
"0+	c #EAC5B9",
"a+	c #D8AA9E",
"b+	c #CC9081",
"c+	c #C27967",
"d+	c #D29D90",
"e+	c #D8A89D",
"f+	c #F6ECE9",
"g+	c #C98878",
"h+	c #D1998C",
"i+	c #E9D0C9",
"j+	c #FEFEFE",
"k+	c #FADCCF",
"l+	c #F5BBA3",
"m+	c #E4DCD9",
"n+	c #B29A94",
"o+	c #CA8B7B",
"p+	c #FBE1D7",
"q+	c #F7C6B2",
"r+	c #E9E1DF",
"s+	c #BFAAA5",
"t+	c #F9D2C2",
"u+	c #EDE7E5",
"v+	c #CCBBB7",
"w+	c #DCB2A7",
"x+	c #FDEDE7",
"y+	c #FADDD1",
"z+	c #F1EDEC",
"A+	c #D9CCC9",
"B+	c #E4C5BC",
"C+	c #FCE8E0",
"D+	c #F6F3F2",
"E+	c #E5DDDB",
"                                                                                                ",
"  . + @ . . . . . . # $ . . . . . % & . . . . . . . . . . . . . . . . . . . . . . . . . . . .   ",
"  . * = . . . . . . - ; . . . . . > , . . . . . . . . . . . . . . . . . . . . . . . . . . . .   ",
"  . ' ) . . . . . . ! ~ . . . . . { ] . . . . . . . . . . . . . . . . . . . . . . . . . . . .   ",
"  . ^ / . . . . . . ( _ . . . . . : < . . . . . . . . . . . . . . . . . . . . . . . . . . . .   ",
"  . [ } . . . . . . | 1 . . . . . 2 3 . . . . . . . . . . . . . . . . . . . . . . . . . . . .   ",
"  . 4 5 . . . . . . 6 7 . . . . . 8 9 . . . . . . . . . . . . . . . . . . . . . . . . . . . .   ",
"  . 4 0 . . . . . . a b . . . . . 8 c . . . . . . . . . . . . . . . . . . . . . . . . . . . .   ",
"  . 4 0 . . . . . . a b . . . . . 8 c . . . . . . . . . . . . . . . . . . . . . . . . . . . .   ",
"  . 4 0 . . . . . . a b . . . . . 8 c . . . . . . . . . . . . . . . . . . . . . . . . . . . .   ",
"  . 4 0 . . . . . . a b . . . . . 8 c . . . . . . . . . . . . . . . . . . . . . . . . . . . .   ",
"  . 4 0 . . . . . . a b . . . . . 8 c . . . . . . . . . . . . . . . . . . . . . . . . . . . .   ",
"  . 4 0 . . . . . . a b . . . . . 8 c . . . . . . . . . . . . . . . . . . . . . . . . . . . .   ",
"  . 4 0 . . . . . . a b . . . . . 8 c . . . . . . . . . . . . . . . . . . . . . . . . . . . .   ",
"  . 4 0 . . . . . . a b . . . . . 8 c . . . . . . . . . . . . . . . . . . . . . . . . . . . .   ",
"  . 4 0 . . . . . . a b . . . . . 8 c . . . . . . . . . . . . . . . . . . . . . . . . . . . .   ",
"  . 4 0 . . . . . . a b . . . . . 8 c . . . . . . . . . . . . . . . . . . . . . . . . . . . .   ",
"  . 4 0 . . . . . . a b . . . . . 8 c . . . . . . . . . . . . . . . . . . . . . . . . . . . .   ",
"  . 4 0 . . . . . . a b . . . . . 8 c { , d . . . . . e , . . . . . . . . . . . . . . . . . .   ",
"  . 4 0 . . f g h . a b . . . . . 8 c i j k . . . . l m n . . . . . . . . . . . . . . . . . .   ",
"  . 4 0 . . 0 o p . a b . . . . . 8 c q r s . . . . t u v l . . . . . . . . . . . . . . . . .   ",
"  . 4 0 . . w x y . a b . h z z A 8 B C D E 2 . . F G H C I . . J K . . { L M . l N O P Q . .   ",
"  . 4 0 . R S T U . a b V W X X Y 8 Z `  ...+.. . @.#.$.%.8 . 8 %.&.. . *.=.-.. ;.L >.,.'.. .   ",
"  . 4 0 . ).!.~.{.].a ^./.(.. A _.8 :.<.. [.}.. |.1.2.>.3.4.. 5.6.5.. . 7.8.2.. 9.0.% . . . .   ",
"  . 4 0 . a.0 . b.c.a d.e.f.. . . g.h.,.. i.G j.k.l.. m.n.o.. 7.p.I . . q.r.A . s.t.O 7.. . .   ",
"  . 4 0 u.v.w.x.y.z.a A.B.. . . . C.D.. . E.F.G.H.I.. J.K.L.. M.N.. . . O.P.. . . Q.R.S.T.. .   ",
"  . 4 0 U.V.W.W.X.Y.Z.`.v.~.. . >  +c . . A .+++>.. . g.@+#+. $+[.. . %+D.$+. . . . &+@+*+. .   ",
"  . 4 0 =+-+. . h ;+>+b ,+;+'+)+!+~+c . . . {+]+. . . o.^+, . /+(+_+:+<+[+}+. |+1+2+.+3+. . .   ",
"  . 4 0 4+5+. . . 6+7+b . 8+9+/ 0+a+c . . . . . . . . 8 G.e . 4.b+c+d+&+e+f+. k g+h+i+j+. . .   ",
"  . 4 0 . . . . . . a b . . . . . 8 c . . . . . . . . . . . . . . . . . . . . . . . . . . . .   ",
"  . 4 0 . . . . . . a b . . . . . 8 c . . . . . . . . . . . . . . . . . . . . . . . . . . . .   ",
"  . 4 0 . . . . . . a b . . . . . 8 c . . . . . . . . . . . . . . . . . . . . . . . . . . . .   ",
"  . 4 0 . . . . . . a b . . . . . 8 c . . . . . . . . . . . . . . . . . . . . . . . . . . . .   ",
"  . 4 0 . . . . . . a b . . . . . 8 c . . . . . . . . . . . . . . . . . . . . . . . . . . . .   ",
"  . 4 0 . . . . . . a b . . . . . 8 c . . . . . . . . . . . . . . . . . . . . . . . . . . . .   ",
"  . 4 0 . . . . . . a b . . . . . 8 c . . . . . . . . . . . . . . . . . . . . . . . . . . . .   ",
"  . 4 0 . . . . . . a b . . . . . 8 c . . . . . . . . . . . . . . . . . . . . . . . . . . . .   ",
"  . 4 0 . . . . . . a b . . . . . 8 c . . . . . . . . . . . . . . . . . . . . . . . . . . . .   ",
"  . 4 0 . . . . . . a b . . . . . 8 c . . . . . . . . . . . . . . . . . . . . . . . . . . . .   ",
"  . 4 0 . . . . . . a b . . . . . 8 c . . . . . . . . . . . . . . . . . . . . . . . . . . . .   ",
"  . 4 0 . . . . . . a b . . . . . 8 c . . . . . . . . . . . . . . . . . . . . . . . . . . . .   ",
"  . 4 0 . . . . . . a b . . . . . 8 c . . . . . . . . . . . . . . . . . . . . . . . . . . . .   ",
"  . k+l+. . . . . . m+n+. . . . . 8 o+. . . . . . . . . . . . . . . . . . . . . . . . . . . .   ",
"  . p+q+. . . . . . r+s+. . . . . I ;.. . . . . . . . . . . . . . . . . . . . . . . . . . . .   ",
"  . 4+t+. . . . . . u+v+. . . . . : w+. . . . . . . . . . . . . . . . . . . . . . . . . . . .   ",
"  . x+y+. . . . . . z+A+. . . . . %+B+. . . . . . . . . . . . . . . . . . . . . . . . . . . .   ",
"  . _.C+. . . . . . D+E+. . . . . > 7.. . . . . . . . . . . . . . . . . . . . . . . . . . . .   ",
"                                                                                                "};
